# xmcd CD database file
#
# Track frame offsets:
#	150
#	43577
#	75661
#	117075
#	148193
#	178711
#
# Disc length: 2850 seconds
#
# Revision: 0
# Processed by: cddbd v1.5.2PL0 Copyright (c) Steve Scherf et al.
# Submitted via: CDex 1.70beta2
#
DISCID=4b0b2006
DTITLE=Olivier Antunes - Live In Japan
DYEAR=2008
DGENRE=Jazz
TTITLE0=All Of Me
TTITLE1=You And Night And The Music
TTITLE2=Hi Lili Hi Lo
TTITLE3=Milestones
TTITLE4=Nature Boy
TTITLE5=When Light Are Low
EXTD=YEAR: 2008
EXTT0=
EXTT1=
EXTT2=
EXTT3=
EXTT4=
EXTT5=
PLAYORDER=
